# xmcd
#
# Track frame offsets: 
#        150
#        24462
#        37045
#        53922
#        70172
#        86440
#        99685
#        123032
#        135015
#        150480
#
# Disc length: 2161 seconds
#
# Revision: 5
# Processed by: cddbd v1.5.2PL0 Copyright (c) Steve Scherf et al.
# Submitted via: ExactAudioCopy v1.0b3
#
DISCID=72086f0a
DTITLE=Johnny Cash - Johnny  99
DYEAR=1983
DGENRE=Country
TTITLE0=Highway Patrolman
TTITLE1=That's the Truth
TTITLE2=God Bless Robert E. Lee
TTITLE3=New Cut Road
TTITLE4=Johnny 99
TTITLE5=Ballad of the Ark
TTITLE6=Joshua Gone Barbados
TTITLE7=Girl from the Canyon
TTITLE8=Brand new Dance
TTITLE9=I'm Ragged but I'm Right
EXTD=
EXTT0=
EXTT1=
EXTT2=
EXTT3=
EXTT4=
EXTT5=
EXTT6=
EXTT7=
EXTT8=
EXTT9=
PLAYORDER=
